<svg width="185" height="185" viewBox="0 0 185 185" fill="none" xmlns="http://www.w3.org/2000/svg">
<path d="M92.5 2.89062C43.0136 2.89062 2.89062 43.028 2.89062 92.5C2.89062 142.001 43.0136 182.109 92.5 182.109C141.986 182.109 182.109 142.001 182.109 92.5C182.109 43.028 141.986 2.89062 92.5 2.89062ZM92.5 42.6367C100.881 42.6367 107.676 49.4311 107.676 57.8125C107.676 66.1939 100.881 72.9883 92.5 72.9883C84.1186 72.9883 77.3242 66.1939 77.3242 57.8125C77.3242 49.4311 84.1186 42.6367 92.5 42.6367ZM112.734 134.414C112.734 136.809 110.793 138.75 108.398 138.75H76.6016C74.207 138.75 72.2656 136.809 72.2656 134.414V125.742C72.2656 123.348 74.207 121.406 76.6016 121.406H80.9375V98.2812H76.6016C74.207 98.2812 72.2656 96.3398 72.2656 93.9453V85.2734C72.2656 82.8789 74.207 80.9375 76.6016 80.9375H99.7266C102.121 80.9375 104.062 82.8789 104.062 85.2734V121.406H108.398C110.793 121.406 112.734 123.348 112.734 125.742V134.414Z" fill="url(#paint0_linear)"/>
<defs>
<linearGradient id="paint0_linear" x1="92.5" y1="2.89062" x2="92.5" y2="182.109" gradientUnits="userSpaceOnUse">
<stop stop-color="#609732"/>
<stop offset="1" stop-color="#87ED31"/>
</linearGradient>
</defs>
</svg>
