<svg width="25" height="25" viewBox="0 0 25 25" fill="none" xmlns="http://www.w3.org/2000/svg">
<path d="M10.6771 11.7188H0.78125C0.349998 11.7188 0 11.3688 0 10.9375C0 10.5062 0.349998 10.1562 0.78125 10.1562H10.6771C11.1084 10.1562 11.4584 10.5062 11.4584 10.9375C11.4584 11.3688 11.1084 11.7188 10.6771 11.7188Z" fill="#606060"/>
<path d="M6.77081 15.6253C6.57072 15.6253 6.37083 15.5492 6.21863 15.3962C5.91345 15.0908 5.91345 14.5961 6.21863 14.2909L9.57289 10.9368L6.21863 7.5837C5.91345 7.27834 5.91345 6.78357 6.21863 6.47839C6.5238 6.17322 7.01857 6.17322 7.32394 6.47839L11.2302 10.3846C11.5354 10.6898 11.5354 11.1846 11.2302 11.49L7.32394 15.3962C7.17078 15.5492 6.9707 15.6253 6.77081 15.6253Z" fill="#606060"/>
<path d="M16.6667 24.9998C15.5177 24.9998 14.5835 24.0654 14.5835 22.9165V4.16646C14.5835 3.27592 15.1502 2.48113 15.9938 2.18835L22.2522 0.101903C23.6522 -0.32725 25.0001 0.711301 25.0001 2.08326V20.8332C25.0001 21.7228 24.4334 22.5165 23.5907 22.8102L17.3303 24.8978C17.1021 24.9686 16.8908 24.9998 16.6667 24.9998ZM22.9167 1.56236C22.849 1.56236 22.7918 1.57075 22.7303 1.58944L16.4981 3.6675C16.2938 3.73845 16.146 3.94464 16.146 4.16646V22.9165C16.146 23.2718 16.5313 23.5114 16.8532 23.4103L23.0855 21.3322C23.2886 21.2613 23.4376 21.0551 23.4376 20.8332V2.08326C23.4376 1.79677 23.2043 1.56236 22.9167 1.56236Z" fill="#606060"/>
<path d="M9.11475 5.2084C8.68349 5.2084 8.3335 4.8584 8.3335 4.42715V2.86465C8.3335 1.28441 9.61771 0 11.198 0H22.9167C23.348 0 23.698 0.349998 23.698 0.78125C23.698 1.2125 23.348 1.5625 22.9167 1.5625H11.198C10.4802 1.5625 9.896 2.14691 9.896 2.86465V4.42715C9.896 4.8584 9.546 5.2084 9.11475 5.2084Z" fill="#606060"/>
<path d="M15.3647 21.8749H11.198C9.61771 21.8749 8.3335 20.5905 8.3335 19.0103V17.4478C8.3335 17.0165 8.68349 16.6665 9.11475 16.6665C9.546 16.6665 9.896 17.0165 9.896 17.4478V19.0103C9.896 19.728 10.4802 20.3124 11.198 20.3124H15.3647C15.796 20.3124 16.146 20.6624 16.146 21.0937C16.146 21.5249 15.796 21.8749 15.3647 21.8749Z" fill="#606060"/>
</svg>
