<svg width="31" height="39" viewBox="0 0 31 39" fill="none" xmlns="http://www.w3.org/2000/svg">
<path d="M30.7022 15.1572V6.42761L15.661 0L0.619865 6.42761V15.1572C0.505295 25.4388 6.18647 34.731 15.661 39C25.1367 34.7278 30.8157 25.4441 30.7022 15.1572ZM11.6585 25.3136L12.7968 21.7377H12.7958L13.8689 18.3608C12.6949 17.7137 11.896 16.4472 11.896 14.9924C11.896 13.1483 13.1784 11.608 14.8822 11.2422C15.1334 11.1887 15.3941 11.1609 15.661 11.1609C17.7401 11.1609 19.424 12.8766 19.424 14.9924C19.424 16.4472 18.6273 17.7137 17.4532 18.3608L19.6636 25.3136H11.6585Z" fill="#609732"/>
</svg>
