<svg width="29" height="28" viewBox="0 0 29 28" fill="none" xmlns="http://www.w3.org/2000/svg">
<path d="M27.9643 12.963H14.2411C14.1064 12.963 13.9821 12.9889 13.863 13.0356C13.428 11.2156 11.7916 9.85185 9.83929 9.85185C7.9025 9.85185 6.28161 11.1896 5.82589 12.9889C5.75857 12.9733 5.68607 12.963 5.60839 12.963H1.03571C0.466071 12.963 0 13.4296 0 14C0 14.5704 0.466071 15.037 1.03571 15.037H5.60839C5.68089 15.037 5.75339 15.0267 5.82589 15.0111C6.28161 16.8104 7.9025 18.1482 9.83929 18.1482C11.7916 18.1482 13.428 16.7844 13.863 14.9644C13.9821 15.0111 14.1064 15.037 14.2411 15.037H27.9643C28.5339 15.037 29 14.5704 29 14C29 13.4296 28.5339 12.963 27.9643 12.963ZM9.83929 16.0741C8.69482 16.0741 7.76786 15.1459 7.76786 14C7.76786 12.8541 8.69482 11.9259 9.83929 11.9259C10.9837 11.9259 11.9107 12.8541 11.9107 14C11.9107 15.1459 10.9837 16.0741 9.83929 16.0741Z" fill="#7CB949"/>
<path d="M27.9643 22.8148H22.5268C22.3921 22.8148 22.2679 22.8407 22.1487 22.8874C21.7137 21.0674 20.0773 19.7037 18.125 19.7037C16.1882 19.7037 14.557 21.0467 14.1116 22.8511C14.0288 22.8304 13.9459 22.8148 13.8527 22.8148H1.03571C0.466071 22.8148 0 23.2815 0 23.8519C0 24.4222 0.466071 24.8889 1.03571 24.8889H13.8527C13.9407 24.8889 14.0288 24.8733 14.1116 24.8526C14.557 26.657 16.1882 28 18.125 28C20.0773 28 21.7137 26.6415 22.1487 24.8163C22.2679 24.863 22.3921 24.8889 22.5268 24.8889H27.9643C28.5339 24.8889 29 24.4222 29 23.8519C29 23.2815 28.5339 22.8148 27.9643 22.8148ZM18.125 25.9259C16.9805 25.9259 16.0536 24.9978 16.0536 23.8519C16.0536 22.7059 16.9805 21.7778 18.125 21.7778C19.2695 21.7778 20.1964 22.7059 20.1964 23.8519C20.1964 24.9978 19.2695 25.9259 18.125 25.9259Z" fill="#7CB949"/>
<path d="M27.9643 3.11111H22.6511C22.1902 1.32741 20.5693 0 18.6429 0C16.7112 0 15.0904 1.33259 14.6346 3.12667C14.588 3.1163 14.5466 3.11111 14.5 3.11111H1.03571C0.466071 3.11111 0 3.57778 0 4.14815C0 4.71852 0.466071 5.18519 1.03571 5.18519H14.5C14.5466 5.18519 14.588 5.18 14.6346 5.16963C15.0904 6.96371 16.7112 8.2963 18.6429 8.2963C20.5693 8.2963 22.1902 6.96889 22.6511 5.18519H27.9643C28.5339 5.18519 29 4.71852 29 4.14815C29 3.57778 28.5339 3.11111 27.9643 3.11111ZM18.6429 6.22222C17.4984 6.22222 16.5714 5.29407 16.5714 4.14815C16.5714 3.00222 17.4984 2.07407 18.6429 2.07407C19.7873 2.07407 20.7143 3.00222 20.7143 4.14815C20.7143 5.29407 19.7873 6.22222 18.6429 6.22222Z" fill="#7CB949"/>
</svg>
