<svg width="8" height="14" viewBox="0 0 8 14" fill="none" xmlns="http://www.w3.org/2000/svg">
<path d="M2.40947 7.90681C2.35696 7.90681 1.20175 7.90681 0.67665 7.90681C0.396598 7.90681 0.309082 7.80201 0.309082 7.54001C0.309082 6.84134 0.309082 6.1252 0.309082 5.42653C0.309082 5.14706 0.414102 5.05973 0.67665 5.05973H2.40947C2.40947 5.00733 2.40947 3.99426 2.40947 3.52265C2.40947 2.82398 2.53199 2.16024 2.88206 1.54891C3.24963 0.920102 3.77473 0.5009 4.43985 0.256365C4.87743 0.0991639 5.31501 0.0292969 5.7876 0.0292969H7.50292C7.74796 0.0292969 7.85298 0.134098 7.85298 0.378632V2.36984C7.85298 2.61438 7.74796 2.71918 7.50292 2.71918C7.03033 2.71918 6.55774 2.71918 6.08516 2.73665C5.61257 2.73665 5.36752 2.96372 5.36752 3.45279C5.35002 3.97679 5.36752 4.48333 5.36752 5.0248H7.3979C7.67795 5.0248 7.78297 5.1296 7.78297 5.40906V7.52254C7.78297 7.80201 7.69545 7.88935 7.3979 7.88935C6.76778 7.88935 5.42003 7.88935 5.36752 7.88935V13.5835C5.36752 13.8805 5.28001 13.9853 4.96495 13.9853C4.22981 13.9853 3.51218 13.9853 2.77704 13.9853C2.51449 13.9853 2.40947 13.8805 2.40947 13.6185C2.40947 11.7844 2.40947 7.95921 2.40947 7.90681Z" fill="#606060"/>
</svg>
