<svg width="15" height="14" viewBox="0 0 15 14" fill="none" xmlns="http://www.w3.org/2000/svg">
<path d="M14.2618 13.3808V13.3803H14.2654V8.66801C14.2654 6.36272 13.7168 4.58691 10.7377 4.58691C9.30549 4.58691 8.3444 5.29788 7.95204 5.97191H7.91061V4.80213H5.08594V13.3803H8.0272V9.13271C8.0272 8.01433 8.26155 6.93289 9.79254 6.93289C11.301 6.93289 11.3235 8.2092 11.3235 9.20445V13.3808H14.2618Z" fill="#606060"/>
<path d="M0.3125 4.58691H3.24999V13.3808H0.3125V4.58691Z" fill="#606060"/>
<path d="M1.96483 0.556641C1.05267 0.556641 0.3125 1.29181 0.3125 2.19781C0.3125 3.10382 1.05267 3.85436 1.96483 3.85436C2.87699 3.85436 3.61716 3.10382 3.61716 2.19781C3.61659 1.29181 2.87642 0.556641 1.96483 0.556641V0.556641Z" fill="#606060"/>
</svg>
