<svg width="17" height="17" viewBox="0 0 17 17" fill="none" xmlns="http://www.w3.org/2000/svg">
<path d="M8.48246 16.3347C8.42977 16.3347 8.37707 16.3347 8.32402 16.3344C7.07666 16.3375 5.92412 16.3058 4.80326 16.2375C3.77565 16.175 2.83764 15.8199 2.09049 15.2107C1.36956 14.6229 0.87724 13.828 0.627257 12.8485C0.409691 11.9958 0.398158 11.1587 0.387109 10.349C0.379096 9.7681 0.37084 9.07973 0.369141 8.37971C0.37084 7.67677 0.379096 6.9884 0.387109 6.40748C0.398158 5.59795 0.409691 4.76086 0.627257 3.90798C0.87724 2.92849 1.36956 2.13365 2.09049 1.5458C2.83764 0.936589 3.77565 0.581478 4.80338 0.518955C5.92424 0.450846 7.07702 0.419038 8.32705 0.422073C9.57478 0.419402 10.727 0.450846 11.8478 0.518955C12.8754 0.581478 13.8134 0.936589 14.5606 1.5458C15.2816 2.13365 15.7738 2.92849 16.0238 3.90798C16.2414 4.76073 16.2529 5.59795 16.264 6.40748C16.272 6.9884 16.2804 7.67677 16.2819 8.37679V8.37971C16.2804 9.07973 16.272 9.7681 16.264 10.349C16.2529 11.1586 16.2415 11.9956 16.0238 12.8485C15.7738 13.828 15.2816 14.6229 14.5606 15.2107C13.8134 15.8199 12.8754 16.175 11.8478 16.2375C10.7744 16.3029 9.67179 16.3347 8.48246 16.3347ZM8.32402 15.0912C9.55111 15.0941 10.6778 15.0632 11.7723 14.9967C12.5493 14.9494 13.223 14.6973 13.7749 14.2472C14.2851 13.8312 14.6365 13.2572 14.8192 12.5411C15.0003 11.8313 15.0108 11.0691 15.0209 10.332C15.0287 9.75498 15.037 9.07147 15.0387 8.37825C15.037 7.6849 15.0287 7.00151 15.0209 6.42447C15.0108 5.68742 15.0003 4.92524 14.8192 4.21526C14.6365 3.49921 14.2851 2.92521 13.7749 2.50915C13.223 2.05922 12.5493 1.80706 11.7723 1.75984C10.6778 1.69319 9.55111 1.66247 8.32693 1.66514C7.10009 1.66223 5.97329 1.69319 4.87878 1.75984C4.10176 1.80706 3.42806 2.05922 2.87613 2.50915C2.36596 2.92521 2.0146 3.49921 1.83188 4.21526C1.65074 4.92524 1.6403 5.6873 1.63022 6.42447C1.62233 7.002 1.61407 7.68587 1.61237 8.37971C1.61407 9.0705 1.62233 9.7545 1.63022 10.332C1.6403 11.0691 1.65074 11.8313 1.83188 12.5411C2.0146 13.2572 2.36596 13.8312 2.87613 14.2472C3.42806 14.6972 4.10176 14.9493 4.87878 14.9965C5.97329 15.0632 7.10033 15.0943 8.32402 15.0912ZM8.29439 12.2632C6.15224 12.2632 4.40929 10.5204 4.40929 8.37825C4.40929 6.23605 6.15224 4.49328 8.29439 4.49328C10.4367 4.49328 12.1795 6.23605 12.1795 8.37825C12.1795 10.5204 10.4367 12.2632 8.29439 12.2632ZM8.29439 5.73647C6.83772 5.73647 5.65252 6.92163 5.65252 8.37825C5.65252 9.83487 6.83772 11.02 8.29439 11.02C9.75119 11.02 10.9363 9.83487 10.9363 8.37825C10.9363 6.92163 9.75119 5.73647 8.29439 5.73647ZM12.6146 3.25009C12.0997 3.25009 11.6822 3.66748 11.6822 4.18248C11.6822 4.69748 12.0997 5.11487 12.6146 5.11487C13.1297 5.11487 13.5471 4.69748 13.5471 4.18248C13.5471 3.66748 13.1297 3.25009 12.6146 3.25009Z" fill="#606060"/>
</svg>
