<svg width="15" height="14" viewBox="0 0 15 14" fill="none" xmlns="http://www.w3.org/2000/svg">
<path d="M14.8108 2.27997C14.2705 2.52999 13.6948 2.69572 13.0946 2.77619C13.712 2.38726 14.1833 1.77608 14.4049 1.03941C13.8292 1.40152 13.1935 1.65729 12.5161 1.80003C11.9695 1.18597 11.1903 0.805664 10.3404 0.805664C8.69135 0.805664 7.36375 2.2177 7.36375 3.94873C7.36375 4.1978 7.38373 4.43729 7.43276 4.66529C4.95647 4.53788 2.7653 3.28582 1.29332 1.37852C1.03634 1.84888 0.885603 2.38726 0.885603 2.96682C0.885603 4.05507 1.41682 5.01973 2.20866 5.57822C1.7301 5.56864 1.26063 5.42208 0.862901 5.19121C0.862901 5.20079 0.862901 5.21324 0.862901 5.22569C0.862901 6.75268 1.89537 8.02102 3.2493 8.3132C3.00685 8.38313 2.7426 8.41666 2.46836 8.41666C2.27767 8.41666 2.08516 8.40517 1.90445 8.36302C2.29038 9.60741 3.38551 10.5223 4.68768 10.552C3.67428 11.3883 2.38755 11.8921 0.994571 11.8921C0.750301 11.8921 0.51602 11.8806 0.281738 11.849C1.60116 12.7466 3.16485 13.2592 4.85113 13.2592C10.3322 13.2592 13.3288 8.46935 13.3288 4.31755C13.3288 4.17864 13.3243 4.04453 13.3179 3.91137C13.9091 3.46879 14.4058 2.91605 14.8108 2.27997Z" fill="#606060"/>
</svg>
