<svg width="18" height="14" viewBox="0 0 18 14" fill="none" xmlns="http://www.w3.org/2000/svg">
<path d="M8.94967 13.2592C8.94828 13.2592 8.94676 13.2592 8.94524 13.2592C8.4442 13.2556 4.01485 13.2137 2.75992 12.8614C1.88289 12.6167 1.19057 11.899 0.954175 10.9886C0.625811 9.7092 0.646714 7.24593 0.648994 7.04924C0.646841 6.85346 0.625685 4.36981 0.953161 3.07987C0.953541 3.07868 0.953795 3.07737 0.954175 3.07619C1.18791 2.17621 1.89581 1.43624 2.75777 1.1909C2.75992 1.19024 2.7622 1.18972 2.76435 1.18906C4.00509 0.85063 8.44319 0.809214 8.94524 0.805664H8.95423C9.45653 0.809214 13.8977 0.851156 15.1411 1.20392C16.0158 1.44794 16.7076 2.16477 16.9447 3.07395C17.2853 4.36482 17.2538 6.85386 17.2503 7.06396C17.2528 7.27091 17.2726 9.7121 16.9462 10.998C16.9459 10.9993 16.9455 11.0005 16.9453 11.0016C16.7088 11.912 16.0166 12.6298 15.1385 12.8747C15.1374 12.8751 15.1361 12.8754 15.135 12.8758C13.8944 13.2141 9.45615 13.2555 8.95423 13.2592C8.95271 13.2592 8.95119 13.2592 8.94967 13.2592ZM2.20707 3.42513C1.91874 4.56375 1.94598 7.01571 1.94623 7.04043V7.05818C1.93762 7.73819 1.9679 9.70749 2.2072 10.6402C2.32324 11.0868 2.66465 11.4407 3.09766 11.5615C4.02359 11.8214 7.63115 11.9032 8.94967 11.9128C10.2716 11.9032 13.8845 11.8237 14.8036 11.5741C15.2352 11.4529 15.5755 11.1003 15.6923 10.6531C15.9318 9.7067 15.9619 7.747 15.9531 7.07133C15.9531 7.06423 15.9531 7.05713 15.9532 7.05003C15.9651 6.36186 15.9417 4.36955 15.6934 3.42934C15.6932 3.42842 15.6929 3.4275 15.6928 3.42658C15.5762 2.97797 15.2347 2.62416 14.8017 2.50333C13.8848 2.24313 10.2714 2.16161 8.94967 2.15202C7.62862 2.16161 4.01928 2.24103 3.0974 2.49031C2.67264 2.61259 2.3235 2.97902 2.20707 3.42513ZM7.29633 9.75864V4.30605L11.8367 7.03241L7.29633 9.75864Z" fill="#606060"/>
</svg>
